# xmcd
#
# Track frame offsets:
#        150
#        17115
#        41760
#
# Disc length: 687 seconds
#
# Revision: 0
# Processed by: cddbd v1.5.1PL0 Copyright (c) Steve Scherf et al.
# Submitted via: ExactAudioCopy v0.95b3
#
DISCID=1e02ad03
DTITLE=FINAL CONTRAST - HELTER
DYEAR=2005
DGENRE=Rock
TTITLE0=Money
TTITLE1=Without You
TTITLE2=Fuck'n Roll Junky
EXTD=
EXTT0=
EXTT1=
EXTT2=
PLAYORDER=
